<mxfile host="app.diagrams.net" modified="2023-11-02T13:44:06.766Z" agent="Mozilla/5.0 (Windows NT 10.0; Win64; x64) AppleWebKit/537.36 (KHTML, like Gecko) Chrome/118.0.0.0 Safari/537.36" etag="cc7ZdNleacvZrLkbleZk" version="22.0.8" type="device">
  <diagram name="Page-1" id="NjS8SXnZEvof5OgqfBmF">
    <mxGraphModel dx="1500" dy="1913" grid="1" gridSize="10" guides="1" tooltips="1" connect="1" arrows="1" fold="1" page="1" pageScale="1" pageWidth="850" pageHeight="1100" math="0" shadow="0">
      <root>
        <mxCell id="0" />
        <mxCell id="1" parent="0" />
        <mxCell id="DX5PUHaupazE0JF8PgjG-2" value="Login Activity" style="rounded=0;whiteSpace=wrap;html=1;" parent="1" vertex="1">
          <mxGeometry x="160" y="-680" width="120" height="60" as="geometry" />
        </mxCell>
        <mxCell id="DX5PUHaupazE0JF8PgjG-3" value="" style="endArrow=none;dashed=1;html=1;strokeWidth=2;rounded=0;" parent="1" target="DX5PUHaupazE0JF8PgjG-2" edge="1">
          <mxGeometry width="50" height="50" relative="1" as="geometry">
            <mxPoint x="220" y="-280" as="sourcePoint" />
            <mxPoint x="530" y="-450" as="targetPoint" />
          </mxGeometry>
        </mxCell>
        <mxCell id="DX5PUHaupazE0JF8PgjG-4" value="" style="endArrow=classic;html=1;rounded=0;entryX=0;entryY=0.25;entryDx=0;entryDy=0;" parent="1" target="DX5PUHaupazE0JF8PgjG-11" edge="1">
          <mxGeometry width="50" height="50" relative="1" as="geometry">
            <mxPoint x="230" y="-520" as="sourcePoint" />
            <mxPoint x="400" y="-519.4999999999999" as="targetPoint" />
          </mxGeometry>
        </mxCell>
        <mxCell id="DX5PUHaupazE0JF8PgjG-5" value="Login&lt;br&gt;successfully,&lt;br&gt;connect to Firestore" style="edgeLabel;html=1;align=center;verticalAlign=middle;resizable=0;points=[];" parent="DX5PUHaupazE0JF8PgjG-4" vertex="1" connectable="0">
          <mxGeometry x="0.0028" relative="1" as="geometry">
            <mxPoint as="offset" />
          </mxGeometry>
        </mxCell>
        <mxCell id="DX5PUHaupazE0JF8PgjG-7" value="" style="rounded=0;whiteSpace=wrap;html=1;" parent="1" vertex="1">
          <mxGeometry x="210" y="-536" width="20" height="66" as="geometry" />
        </mxCell>
        <mxCell id="DX5PUHaupazE0JF8PgjG-8" value="Firestore&#39; collection &quot;users&quot;" style="rounded=0;whiteSpace=wrap;html=1;" parent="1" vertex="1">
          <mxGeometry x="360" y="-680" width="120" height="60" as="geometry" />
        </mxCell>
        <mxCell id="DX5PUHaupazE0JF8PgjG-9" value="" style="endArrow=none;dashed=1;html=1;strokeWidth=2;rounded=0;" parent="1" source="DX5PUHaupazE0JF8PgjG-13" target="DX5PUHaupazE0JF8PgjG-8" edge="1">
          <mxGeometry width="50" height="50" relative="1" as="geometry">
            <mxPoint x="420" y="-120" as="sourcePoint" />
            <mxPoint x="730" y="-450" as="targetPoint" />
          </mxGeometry>
        </mxCell>
        <mxCell id="DX5PUHaupazE0JF8PgjG-11" value="" style="rounded=0;whiteSpace=wrap;html=1;" parent="1" vertex="1">
          <mxGeometry x="410" y="-536" width="20" height="66" as="geometry" />
        </mxCell>
        <mxCell id="DX5PUHaupazE0JF8PgjG-12" value="" style="endArrow=classic;html=1;rounded=0;exitX=1;exitY=0.25;exitDx=0;exitDy=0;entryX=1;entryY=0.25;entryDx=0;entryDy=0;" parent="1" source="DX5PUHaupazE0JF8PgjG-11" target="DX5PUHaupazE0JF8PgjG-13" edge="1">
          <mxGeometry width="50" height="50" relative="1" as="geometry">
            <mxPoint x="400" y="-330" as="sourcePoint" />
            <mxPoint x="450" y="-380" as="targetPoint" />
            <Array as="points">
              <mxPoint x="480" y="-460" />
            </Array>
          </mxGeometry>
        </mxCell>
        <mxCell id="DX5PUHaupazE0JF8PgjG-15" value="Search: document &lt;br&gt;with id &quot;userID&quot;" style="edgeLabel;html=1;align=center;verticalAlign=middle;resizable=0;points=[];" parent="DX5PUHaupazE0JF8PgjG-12" vertex="1" connectable="0">
          <mxGeometry x="-0.1918" y="2" relative="1" as="geometry">
            <mxPoint x="26" y="21" as="offset" />
          </mxGeometry>
        </mxCell>
        <mxCell id="DX5PUHaupazE0JF8PgjG-14" value="" style="endArrow=none;dashed=1;html=1;strokeWidth=2;rounded=0;" parent="1" target="DX5PUHaupazE0JF8PgjG-13" edge="1">
          <mxGeometry width="50" height="50" relative="1" as="geometry">
            <mxPoint x="420" y="-280" as="sourcePoint" />
            <mxPoint x="420" y="-620" as="targetPoint" />
          </mxGeometry>
        </mxCell>
        <mxCell id="DX5PUHaupazE0JF8PgjG-13" value="" style="rounded=0;whiteSpace=wrap;html=1;" parent="1" vertex="1">
          <mxGeometry x="410" y="-410" width="20" height="66" as="geometry" />
        </mxCell>
        <mxCell id="DX5PUHaupazE0JF8PgjG-16" value="" style="endArrow=open;html=1;rounded=0;exitX=0;exitY=0.25;exitDx=0;exitDy=0;endFill=0;dashed=1;" parent="1" source="DX5PUHaupazE0JF8PgjG-13" edge="1">
          <mxGeometry width="50" height="50" relative="1" as="geometry">
            <mxPoint x="610" y="-395" as="sourcePoint" />
            <mxPoint x="220" y="-393" as="targetPoint" />
          </mxGeometry>
        </mxCell>
        <mxCell id="DX5PUHaupazE0JF8PgjG-17" value="if error, Log: e" style="edgeLabel;html=1;align=center;verticalAlign=middle;resizable=0;points=[];" parent="DX5PUHaupazE0JF8PgjG-16" vertex="1" connectable="0">
          <mxGeometry x="0.4229" y="2" relative="1" as="geometry">
            <mxPoint x="45" as="offset" />
          </mxGeometry>
        </mxCell>
        <mxCell id="LFdHv2PkfiXNpMNKOJ5D-1" value="" style="endArrow=classic;html=1;rounded=0;entryX=0;entryY=0.25;entryDx=0;entryDy=0;" edge="1" parent="1">
          <mxGeometry width="50" height="50" relative="1" as="geometry">
            <mxPoint x="430" y="-360" as="sourcePoint" />
            <mxPoint x="610" y="-359" as="targetPoint" />
          </mxGeometry>
        </mxCell>
        <mxCell id="LFdHv2PkfiXNpMNKOJ5D-2" value="if successfully,&lt;br&gt;save" style="edgeLabel;html=1;align=center;verticalAlign=middle;resizable=0;points=[];" vertex="1" connectable="0" parent="LFdHv2PkfiXNpMNKOJ5D-1">
          <mxGeometry x="0.0028" relative="1" as="geometry">
            <mxPoint as="offset" />
          </mxGeometry>
        </mxCell>
        <mxCell id="LFdHv2PkfiXNpMNKOJ5D-7" value="&amp;lt;&amp;lt;Object&amp;gt;&amp;gt;&lt;br&gt;Constants" style="rounded=0;whiteSpace=wrap;html=1;" vertex="1" parent="1">
          <mxGeometry x="560" y="-680" width="120" height="60" as="geometry" />
        </mxCell>
        <mxCell id="LFdHv2PkfiXNpMNKOJ5D-8" value="" style="endArrow=none;dashed=1;html=1;strokeWidth=2;rounded=0;" edge="1" parent="1" source="LFdHv2PkfiXNpMNKOJ5D-10" target="LFdHv2PkfiXNpMNKOJ5D-7">
          <mxGeometry width="50" height="50" relative="1" as="geometry">
            <mxPoint x="620" y="-120" as="sourcePoint" />
            <mxPoint x="930" y="-450" as="targetPoint" />
          </mxGeometry>
        </mxCell>
        <mxCell id="LFdHv2PkfiXNpMNKOJ5D-9" value="" style="endArrow=none;dashed=1;html=1;strokeWidth=2;rounded=0;" edge="1" parent="1" target="LFdHv2PkfiXNpMNKOJ5D-10">
          <mxGeometry width="50" height="50" relative="1" as="geometry">
            <mxPoint x="620" y="-280" as="sourcePoint" />
            <mxPoint x="620" y="-620" as="targetPoint" />
          </mxGeometry>
        </mxCell>
        <mxCell id="LFdHv2PkfiXNpMNKOJ5D-10" value="" style="rounded=0;whiteSpace=wrap;html=1;" vertex="1" parent="1">
          <mxGeometry x="610" y="-380" width="20" height="46" as="geometry" />
        </mxCell>
        <mxCell id="LFdHv2PkfiXNpMNKOJ5D-11" value="Constants.userID&lt;br&gt;Constants.firstName&lt;br&gt;Constants.lastName&lt;br&gt;Constant.email&lt;br&gt;Constants.avatarID&lt;br&gt;Constants.balanceInUSD&amp;nbsp;" style="text;html=1;strokeColor=none;fillColor=none;align=left;verticalAlign=middle;whiteSpace=wrap;rounded=0;" vertex="1" parent="1">
          <mxGeometry x="640" y="-372" width="60" height="30" as="geometry" />
        </mxCell>
        <mxCell id="LFdHv2PkfiXNpMNKOJ5D-13" value="&lt;font style=&quot;font-size: 18px;&quot;&gt;&lt;b&gt;Get user data&lt;/b&gt;&lt;/font&gt;" style="shape=umlFrame;whiteSpace=wrap;html=1;pointerEvents=0;width=200;height=30;" vertex="1" parent="1">
          <mxGeometry x="50" y="-730" width="750" height="470" as="geometry" />
        </mxCell>
      </root>
    </mxGraphModel>
  </diagram>
</mxfile>
